<svg width="200" height="200" viewBox="0 0 42 42" fill="none" xmlns="http://www.w3.org/2000/svg">
    <path d="M24.8117 5.81296C23.5382 5.46297 22.1898 5.29559 20.8264 5.29559C19.463 5.29559 18.1745 5.47819 16.9159 5.79774L20.8714 16.8755L24.8117 5.81296Z" fill="#539DB3"/>
    <path d="M36.4221 21.1514C36.4221 19.1732 36.0925 17.2864 35.4332 15.5364L28.0168 35.1964C32.9911 32.5487 36.4221 27.2533 36.4221 21.1514Z" fill="#539DB3"/>
    <path d="M28.6766 7.44064L24.1068 20.2226H17.6644L13.0797 7.37972C11.3866 8.36885 9.90335 9.66224 8.67477 11.2144L15.1922 28.3788L17.5745 22.1095H23.8371L26.2194 28.3788L32.7967 11.0013C31.6431 9.57093 30.2347 8.36885 28.6616 7.42538" fill="#539DB3"/>
    <path d="M20.8258 0C9.36408 0 0 9.49521 0 21.1512C0 32.8072 9.36408 42.2872 20.8258 42.2872C32.2875 42.2872 41.6367 32.7768 41.6367 21.1512C41.6367 9.52567 32.3025 0 20.8258 0ZM20.8258 39.5939C10.8324 39.5939 2.65192 31.316 2.65192 21.1664C2.65192 11.0169 10.8174 2.69336 20.8258 2.69336C30.8342 2.69336 38.9997 10.9865 38.9997 21.1664C38.9997 31.3464 30.8342 39.5939 20.8258 39.5939Z" fill="#539DB3"/>
    <path d="M20.6908 25.4881L16.6604 36.0941V36.4289C17.9789 36.8093 19.3723 36.992 20.8256 36.992C22.1891 36.992 23.5075 36.8246 24.766 36.4898L24.7211 36.0941L20.6908 25.4881Z" fill="#539DB3"/>
    <path d="M5.22913 21.1512C5.22913 27.1161 8.49535 32.3354 13.3497 35.0288L6.11312 15.8861C5.52878 17.5296 5.22913 19.2947 5.22913 21.1512Z" fill="#539DB3"/>
    <mask id="mask0_1_755" style="mask-type:luminance" maskUnits="userSpaceOnUse" x="2" y="14" width="24" height="24">
        <path d="M26 14H2V38H26V14Z" fill="white"/>
    </mask>
    <g mask="url(#mask0_1_755)">
    </g>
</svg>
